<svg width="29" height="33" viewBox="0 0 29 33" fill="none" xmlns="http://www.w3.org/2000/svg">
<path d="M28.916 0.6875H0.916016V1.6875H28.916V0.6875Z" fill="#4D4D4F"/>
<path d="M19.916 22.6875C19.916 21.5875 17.716 20.6875 14.916 20.6875C12.116 20.6875 9.91602 21.5875 9.91602 22.6875C9.91602 23.7875 12.116 24.6875 14.916 24.6875C17.716 24.6875 19.916 23.7875 19.916 22.6875Z" fill="#4D4D4F"/>
<path d="M28.916 1.6875H0.916016V22.6875H28.916V1.6875Z" fill="#6D6E71"/>
<path d="M26.916 3.6875H2.91602V20.6875H26.916V3.6875Z" fill="#00B6B5"/>
<path d="M14.916 6.1875L10.416 8.6875V13.6875C10.416 16.7875 14.916 18.2875 14.916 18.2875C14.916 18.2875 19.416 16.7875 19.416 13.6875V8.6875L14.916 6.1875ZM18.416 13.6875C18.416 15.5875 15.816 16.7875 14.916 17.1875C14.016 16.7875 11.416 15.5875 11.416 13.6875V9.2875L14.916 7.2875L18.416 9.2875V13.6875Z" fill="white"/>
<path d="M21.916 25.6875H0.916016V31.6875H21.916V25.6875Z" fill="#4D4D4F"/>
<path d="M21.916 31.6875H0.916016V32.6875H21.916V31.6875Z" fill="#6D6E71"/>
<path d="M28.916 30.4875C28.916 31.6875 27.816 32.6875 26.416 32.6875C25.016 32.6875 23.916 31.6875 23.916 30.4875V27.8875C23.916 26.6875 25.016 25.6875 26.416 25.6875C27.816 25.6875 28.916 26.6875 28.916 27.8875V30.4875Z" fill="#4D4D4F"/>
<path d="M26.416 31.9875C25.016 31.9875 23.916 30.9875 23.916 29.7875V30.4875C23.916 31.6875 25.016 32.6875 26.416 32.6875C27.816 32.6875 28.916 31.6875 28.916 30.4875V29.7875C28.916 30.9875 27.816 31.9875 26.416 31.9875Z" fill="#6D6E71"/>
</svg>
