<svg width="32" height="36" viewBox="0 0 32 36" fill="none" xmlns="http://www.w3.org/2000/svg">
<path fill-rule="evenodd" clip-rule="evenodd" d="M21.6521 24.7511C21.6521 23.5374 19.1928 22.5537 16.1586 22.5537C13.1243 22.5537 10.665 23.5374 10.665 24.7511C10.665 25.9649 13.1243 26.9485 16.1586 26.9485C19.1928 26.9485 21.6521 25.9649 21.6521 24.7511" fill="#4D4D4F"/>
<path fill-rule="evenodd" clip-rule="evenodd" d="M0.776855 2.77652H31.5407V0.579102H0.776855V2.77652Z" fill="#4D4D4F"/>
<path fill-rule="evenodd" clip-rule="evenodd" d="M0.776855 24.751H31.5407V2.77686H0.776855V24.751Z" fill="#6D6E71"/>
<path fill-rule="evenodd" clip-rule="evenodd" d="M2.97412 22.5535H29.3431V4.97412H2.97412V22.5535Z" fill="#44ADE2"/>
<path fill-rule="evenodd" clip-rule="evenodd" d="M18.356 35.7379H31.5405V34.6392H18.356V35.7379Z" fill="#6D6E71"/>
<path fill-rule="evenodd" clip-rule="evenodd" d="M18.356 34.6395H31.5405V29.146H18.356V34.6395Z" fill="#4D4D4F"/>
<path fill-rule="evenodd" clip-rule="evenodd" d="M20.5537 33.5408H29.3434V30.2446H20.5537V33.5408Z" fill="#A5CF4C"/>
<path fill-rule="evenodd" clip-rule="evenodd" d="M15.6092 7.17139L10.665 10.0099V15.253C10.665 18.7074 15.6092 20.3559 15.6092 20.3559C15.6092 20.3559 20.5534 18.7074 20.5534 15.253V10.0099L15.6092 7.17139ZM15.6091 8.80731L19.1154 10.8206V15.2531C19.1154 17.1155 16.6561 18.3792 15.6091 18.8324C14.5601 18.3786 12.1029 17.1148 12.1029 15.2531V10.8206L15.6091 8.80731V8.80731Z" fill="white"/>
<path fill-rule="evenodd" clip-rule="evenodd" d="M0.776855 35.738H16.1588V18.1587H0.776855V35.738Z" fill="#636463"/>
<path fill-rule="evenodd" clip-rule="evenodd" d="M0.776855 18.1588H16.1588V17.0601H0.776855V18.1588Z" fill="#414241"/>
<path fill-rule="evenodd" clip-rule="evenodd" d="M1.87549 34.6392H15.06V19.2573H1.87549V34.6392Z" fill="#FDB924"/>
<path fill-rule="evenodd" clip-rule="evenodd" d="M8.90743 29.7242C8.90743 29.8519 8.8092 29.9553 8.68786 29.9553C8.56652 29.9553 8.46771 29.8519 8.46771 29.7242V27.1797C8.61852 27.1797 8.76529 27.1633 8.90743 27.1329V29.7242ZM8.46747 23.4779C8.71015 23.4779 8.90719 23.6859 8.90719 23.9414C8.90719 24.1968 8.71015 24.4037 8.46747 24.4037C8.22479 24.4037 8.02834 24.1968 8.02834 23.9414C8.02834 23.6859 8.22479 23.4779 8.46747 23.4779V23.4779ZM10.6653 24.8664C10.6653 23.5884 9.68191 22.5537 8.46792 22.5537C7.25452 22.5537 6.27051 23.5884 6.27051 24.8664C6.27051 25.8153 6.81365 26.6286 7.58907 26.9857V27.6408L8.02879 28.1037L7.58907 28.566V29.0283L8.02879 29.4912L7.58907 29.9547L8.02879 30.4164V30.4188H8.03052L8.90764 31.3434L9.34562 30.4188H9.34735V26.9857C10.1228 26.6286 10.6653 25.8153 10.6653 24.8664V24.8664Z" fill="white"/>
</svg>
