<svg width="29" height="33" viewBox="0 0 29 33" fill="none" xmlns="http://www.w3.org/2000/svg">
<path d="M28.1367 1.6875H0.136719V21.6875H28.1367V1.6875Z" fill="#6D6E71"/>
<path d="M26.1367 3.6875H2.13672V19.6875H26.1367V3.6875Z" fill="#A7A9AC"/>
<path d="M28.1367 0.6875H0.136719V1.6875H28.1367V0.6875Z" fill="#4D4D4F"/>
<path d="M28.1367 21.6875H0.136719V31.6875H28.1367V21.6875Z" fill="#BCBEC0"/>
<path d="M26.1367 22.6875H2.13672V26.6875H26.1367V22.6875Z" fill="#58595B"/>
<path d="M18.1367 27.6875H10.1367V30.6875H18.1367V27.6875Z" fill="#9D9FA2"/>
<path d="M28.1367 31.6875H0.136719V32.6875H28.1367V31.6875Z" fill="white"/>
<path d="M14.1367 5.6875L9.63672 8.1875V13.1875C9.63672 16.2875 14.1367 17.7875 14.1367 17.7875C14.1367 17.7875 18.6367 16.2875 18.6367 13.1875V8.1875L14.1367 5.6875ZM17.6367 13.1875C17.6367 15.0875 15.0367 16.2875 14.1367 16.6875C13.2367 16.2875 10.6367 15.0875 10.6367 13.1875V8.7875L14.1367 6.7875L17.6367 8.7875V13.1875Z" fill="white"/>
</svg>
