<svg width="34" height="45" viewBox="0 0 34 45" fill="none" xmlns="http://www.w3.org/2000/svg">
<path fill-rule="evenodd" clip-rule="evenodd" d="M2.78125 27.4688C2.78125 36.0284 13.8347 40.9634 16.9989 42.2344V2.3125L2.78125 10.5255V26.865" fill="#B455A0"/>
<path fill-rule="evenodd" clip-rule="evenodd" d="M2.78125 11.0767L16.9989 2.86375V0.125L0.59375 9.65484V27.3386C0.594844 39.0603 16.9562 44.6603 16.9989 44.6756V42.3022C13.8347 41.0313 2.78125 35.9759 2.78125 27.4162V11.0767" fill="white"/>
<path fill-rule="evenodd" clip-rule="evenodd" d="M17 2.3125V42.2344C20.1642 40.9634 31.2188 36.0284 31.2188 27.4688V10.45L17 2.3125Z" fill="#A23293"/>
<path fill-rule="evenodd" clip-rule="evenodd" d="M31.2188 11.0013L17 2.86375V0.125L33.4062 9.65484V27.3386C33.4052 39.0603 17.0427 44.6603 17 44.6756V42.3022C20.1642 41.0313 31.2188 35.9759 31.2188 27.3397V11.0013" fill="#E5E6E3"/>
<path fill-rule="evenodd" clip-rule="evenodd" d="M24.5933 18.8782C25.5186 18.3773 26.1541 17.4115 26.1541 16.286C26.1541 14.6509 24.8241 13.3252 23.1835 13.3252C22.5239 13.3252 21.9191 13.5484 21.4258 13.9115C20.3627 12.8626 18.7297 12.1855 17.0585 12.1571C14.3788 12.1101 12.1278 14.0132 11.628 16.5452L11.5339 16.5387C8.55457 16.4971 6.10457 18.8716 6.06301 21.8412C6.02144 24.814 8.54801 27.4674 11.7407 27.4674L23.143 27.4685H23.5039C25.9321 27.4685 27.9019 25.5785 27.9369 23.1723C27.9653 21.0985 26.5347 19.3441 24.5933 18.8782" fill="#6A1F5B"/>
<path fill-rule="evenodd" clip-rule="evenodd" d="M24.5933 19.9719C25.5186 19.471 26.1541 18.5052 26.1541 17.3809C26.1541 15.7446 24.8241 14.419 23.1835 14.419C22.5239 14.419 21.9191 14.6421 21.4258 15.0052C20.3627 13.9563 18.7297 13.2793 17.0585 13.2509C14.3788 13.2038 12.1278 15.1069 11.628 17.639L11.5339 17.6324C8.55457 17.5909 6.10457 19.9665 6.06301 22.936C6.02144 25.9077 8.54801 28.5623 11.7407 28.5623H23.5039C25.9321 28.5623 27.9019 26.6734 27.9369 24.2671C27.9653 22.1923 26.5347 20.439 24.5933 19.9719" fill="white"/>
<path fill-rule="evenodd" clip-rule="evenodd" d="M10.4375 22.2045L12.0431 20.5989L14.7841 23.3398L22.6864 15.4375L24.2909 17.0442L14.7852 26.5511L10.4375 22.2045" fill="#A23293"/>
</svg>
